<svg id="Layer_1" data-name="Layer 1" xmlns="http://www.w3.org/2000/svg" viewBox="0 0 636.06 140.22"><defs><style>.cls-1{fill:#5e6df2;}</style></defs><title>Mercari_Logo</title><polygon class="cls-1" points="120.35 137.92 182.72 137.92 182.72 120.69 139.01 120.69 139.01 104.69 180.7 104.69 180.7 87.7 139.01 87.7 139.01 70.92 182.72 70.92 182.72 53.69 120.35 53.69 120.35 137.92"/><path class="cls-1" d="M282,66.76c0-8.58-3.09-15.42-9.2-20.33-5.95-4.88-13.73-7.35-23.11-7.35H214.79V123.3h18.66V96.58h13.39l16.39,26.72h21.2L265.84,93A28.65,28.65,0,0,0,282,66.76ZM233.45,56.3h13.18c11.51,0,16.87,3.63,16.87,11.41S258,79.47,246.63,79.47H233.45Z"/><path class="cls-1" d="M373.09,110.31c-5.61,7.59-13.07,11.45-22.19,11.45a24.66,24.66,0,0,1-17.84-7c-4.79-4.67-7.22-11.11-7.22-19.14s2.43-14.22,7.22-18.78a23.56,23.56,0,0,1,16.89-7,26,26,0,0,1,21.71,11.08l.33.47,12.58-12.83-.27-.33c-8.49-10.52-19.76-15.86-33.51-15.86-12.55,0-23.13,4-31.46,12S306.71,82.91,306.71,96c0,12.91,4.25,23.46,12.63,31.36s19.26,11.88,32,11.88c14.1,0,25.62-5.33,34.23-15.85l.26-.33-12.44-13.19Z"/><path class="cls-1" d="M453.23,39.08H435.71L403,122.65l-.25.65h19.32l6-15.09h32.59l6.13,15.09h19.31l-32.8-83.92Zm1.38,52.49H434.34l10.13-26.68Z"/><path class="cls-1" d="M577.65,81.37c0-8.58-3.1-15.42-9.2-20.33s-13.73-7.35-23.11-7.35H510.41v84.23h18.66V111.19h13.39l16.39,26.73h21.2l-18.59-30.34A28.65,28.65,0,0,0,577.65,81.37ZM529.07,70.92h13.18c11.51,0,16.86,3.62,16.86,11.4s-5.51,11.76-16.86,11.76H529.07Z"/><rect class="cls-1" x="607.95" y="46.38" width="18.54" height="76.92"/><rect class="cls-1" x="609.59" y="4.42" width="22.05" height="22.05" transform="translate(365.05 581.21) rotate(-67.12)"/><path class="cls-1" d="M44.39,84.67,68.25,39.08h19V123.3H68.5V75.21h-.22L50.21,107.72H38.08L20,75.26h-.23v48H1V39.08H20l24,45.59Z"/></svg>